<svg height="512" viewBox="0 0 64 64" width="512" xmlns="http://www.w3.org/2000/svg"><g id="flat"><path d="m10 3h44v58h-44z" fill="#195c85"/><path d="m17.757 11h8.485v2h-8.485z" fill="#ad6327" transform="matrix(.707 -.707 .707 .707 -2.042 19.071)"/><g fill="#f4f4e6"><path d="m19 48h-6v-6h6zm-4-2h2v-2h-2z"/><path d="m35 48h-6v-6h6zm-4-2h2v-2h-2z"/><path d="m27 56h-6v-6h6zm-4-2h2v-2h-2z"/><path d="m35 56h-6v-6h6zm-4-2h2v-2h-2z"/><path d="m43 48h-6v-6h6zm-4-2h2v-2h-2z"/><path d="m21 46h6v2h-6z"/><path d="m13 54h6v2h-6z"/><path d="m37 54h6v2h-6z"/><path d="m45 54h6v2h-6z"/><path d="m45 46h6v2h-6z"/></g><path d="m20 38h-2v-30h19v6h-2v-4h-15z" fill="#d3843d"/><path d="m37 21.477 3.629 1.452.742-1.858-4.371-1.748v-2.323h-2v2.323l-4.371 1.748.742 1.858 3.629-1.452v4.109l-3.707 3.707 1.414 1.414 3.293-3.293 3.293 3.293 1.414-1.414-3.707-3.707z" fill="#f9bb4b"/><path d="m51 14h-2v-6h-4v-2h6z" fill="#87cee9"/><path d="m49 16h2v2h-2z" fill="#87cee9"/><path d="m13 6h2v2h-2z" fill="#87cee9"/><path d="m13 10h2v2h-2z" fill="#87cee9"/><path d="m13 37h13v2h-13z" fill="#ad6327"/><circle cx="36" cy="16" fill="#ffd782" r="3"/></g></svg>