<?xml version="1.0" encoding="iso-8859-1"?>
<!-- Generator: Adobe Illustrator 19.0.0, SVG Export Plug-In . SVG Version: 6.00 Build 0)  -->
<svg version="1.1" id="Capa_1" xmlns="http://www.w3.org/2000/svg" xmlns:xlink="http://www.w3.org/1999/xlink" x="0px" y="0px"
	 viewBox="0 0 197.973 197.973" style="enable-background:new 0 0 197.973 197.973;" xml:space="preserve">
<g>
	<g>
		<path d="M165.649,47.788l-26.984-3.388c-0.2-0.027-0.403-0.032-0.601-0.022c-2.156-2.113-5.108-3.418-8.358-3.418
			c-5.354,0-9.897,3.54-11.411,8.402c-0.34,0.529-0.536,1.162-0.536,1.838v44.834c0,6.833,4.094,12.797,10.24,15.321v25.178
			c0,1.884,1.529,3.413,3.413,3.413h44.373c1.884,0,3.413-1.529,3.413-3.413v-25.178c6.146-2.526,10.24-8.487,10.24-15.321V71.799
			C189.44,58.633,178.789,47.906,165.649,47.788z M182.613,96.036c0,4.572-3.121,8.48-7.59,9.506
			c-1.551,0.355-2.65,1.734-2.65,3.326v24.252h-37.547v-24.252c0-1.591-1.099-2.971-2.65-3.326c-4.468-1.024-7.59-4.932-7.59-9.506
			V52.907c0-2.823,2.297-5.12,5.12-5.12c2.823,0,5.12,2.297,5.12,5.12c0,1.884,1.529,3.413,3.413,3.413s3.413-1.529,3.413-3.413
			v-1.251l23.349,2.932c0.14,0.019,0.283,0.027,0.425,0.027c9.477,0,17.186,7.709,17.186,17.186V96.036z"/>
	</g>
</g>
<g>
	<g>
		<path d="M59.733,58.027c-1.884,0-3.413,1.529-3.413,3.413v3.413c0,1.884,1.529,3.413,3.413,3.413c1.884,0,3.413-1.529,3.413-3.413
			V61.44C63.147,59.556,61.617,58.027,59.733,58.027z"/>
	</g>
</g>
<g>
	<g>
		<path d="M80.162,50.616l-1.563-8.987c-0.323-1.859-2.089-3.087-3.948-2.779c-1.857,0.323-3.099,2.091-2.777,3.948l1.512,8.697
			v44.541c0,4.572-3.122,8.48-7.59,9.506c-1.551,0.355-2.65,1.734-2.65,3.326v24.252H25.6v-24.253c0-1.591-1.099-2.971-2.65-3.326
			c-4.468-1.024-7.59-4.932-7.59-9.506V71.95c0.005-0.073,0.01-0.147,0.01-0.207c0.003-0.116,0-0.234-0.01-0.348V58.027
			c0-1.882,1.531-3.413,3.413-3.413c0.713,0,1.676-0.102,2.894-0.23c1.671-0.177,4.466-0.476,5.629-0.28
			c1.865,0.312,3.618-0.944,3.93-2.804c0.311-1.859-0.944-3.618-2.802-3.93c-2.087-0.348-5.076-0.031-7.479,0.225
			c-0.853,0.089-1.821,0.193-2.173,0.193c-5.647,0-10.24,4.593-10.24,10.24V71.68c0,0.022,0,0.043,0,0.065c0,0.019,0,0.036,0,0.055
			v24.235c0,6.833,4.094,12.797,10.24,15.321v25.178c0,1.884,1.529,3.413,3.413,3.413H66.56c1.884,0,3.413-1.529,3.413-3.413
			v-25.175c6.146-2.526,10.24-8.487,10.24-15.321V51.202C80.213,51.005,80.196,50.809,80.162,50.616z"/>
	</g>
</g>
<g>
	<g>
		<path d="M37.547,37.547c-6.588,0-11.947,5.361-11.947,11.947v15.36c0,1.884,1.529,3.413,3.413,3.413s3.413-1.529,3.413-3.413
			v-15.36c0-2.823,2.297-5.12,5.12-5.12s5.12,2.297,5.12,5.12v0.009c0,1.884,1.529,3.408,3.413,3.408s3.413-1.533,3.413-3.417
			C49.493,42.907,44.134,37.547,37.547,37.547z"/>
	</g>
</g>
<g>
	<g>
		<path d="M74.226,16.474l-0.843-4.847C73.213,5.187,67.92,0,61.44,0c-6.588,0-11.947,5.361-11.947,11.947
			c0,0.215,0.021,0.428,0.061,0.638l4.323,22.699c0.311,1.637,1.742,2.775,3.348,2.775c0.212,0,0.427-0.021,0.642-0.06
			c1.853-0.353,3.069-2.14,2.715-3.992l-4.256-22.342c0.147-2.693,2.384-4.838,5.113-4.838c2.823,0,5.12,2.297,5.12,5.12
			c0,0.196,0.017,0.391,0.053,0.584l0.889,5.113c0.323,1.859,2.089,3.094,3.948,2.778C73.305,20.099,74.549,18.331,74.226,16.474z"
			/>
	</g>
</g>
<g>
	<g>
		<path d="M69.973,133.12H15.36c-1.884,0-3.413,1.529-3.413,3.413v58.027c0,1.884,1.529,3.413,3.413,3.413h54.613
			c1.884,0,3.413-1.529,3.413-3.413v-58.027C73.387,134.649,71.857,133.12,69.973,133.12z M66.56,191.147H18.773v-51.2H66.56
			V191.147z"/>
	</g>
</g>
<g>
	<g>
		<path d="M86.523,12.57c-5.117-4.144-12.653-3.359-16.845,1.807L39.972,52.514c-1.157,1.488-0.893,3.633,0.596,4.792
			c1.488,1.155,3.632,0.889,4.791-0.596l29.665-38.084c1.78-2.195,5.009-2.531,7.202-0.751c2.193,1.778,2.531,5.009,0.753,7.2
			L53.956,60.87c-1.186,1.464-0.963,3.613,0.502,4.801c0.633,0.512,1.393,0.761,2.149,0.761c0.993,0,1.978-0.432,2.65-1.265
			l29.022-35.794C92.426,24.257,91.639,16.719,86.523,12.57z"/>
	</g>
</g>
<g>
	<g>
		<path d="M138.24,44.373c-1.884,0-3.413,1.529-3.413,3.413v17.067c0,1.884,1.529,3.413,3.413,3.413s3.413-1.529,3.413-3.413V47.787
			C141.653,45.902,140.124,44.373,138.24,44.373z"/>
	</g>
</g>
<g>
	<g>
		<path d="M155.307,51.2c-1.884,0-3.413,1.529-3.413,3.413v10.24c0,1.884,1.529,3.413,3.413,3.413s3.413-1.529,3.413-3.413v-10.24
			C158.72,52.729,157.191,51.2,155.307,51.2z"/>
	</g>
</g>
<g>
	<g>
		<path d="M168.96,51.2c-1.884,0-3.413,1.529-3.413,3.413v10.24c0,1.884,1.529,3.413,3.413,3.413s3.413-1.529,3.413-3.413v-10.24
			C172.373,52.729,170.844,51.2,168.96,51.2z"/>
	</g>
</g>
<g>
	<g>
		<path d="M182.613,133.12H128c-1.884,0-3.413,1.529-3.413,3.413v58.027c0,1.884,1.529,3.413,3.413,3.413h54.613
			c1.884,0,3.413-1.529,3.413-3.413v-58.027C186.027,134.649,184.497,133.12,182.613,133.12z M179.2,191.147h-47.787v-51.2H179.2
			V191.147z"/>
	</g>
</g>
<g>
</g>
<g>
</g>
<g>
</g>
<g>
</g>
<g>
</g>
<g>
</g>
<g>
</g>
<g>
</g>
<g>
</g>
<g>
</g>
<g>
</g>
<g>
</g>
<g>
</g>
<g>
</g>
<g>
</g>
</svg>
