<?xml version="1.0" encoding="iso-8859-1"?>
<!-- Generator: Adobe Illustrator 19.0.0, SVG Export Plug-In . SVG Version: 6.00 Build 0)  -->
<svg version="1.1" id="Capa_1" xmlns="http://www.w3.org/2000/svg" xmlns:xlink="http://www.w3.org/1999/xlink" x="0px" y="0px"
	 viewBox="0 0 197.973 197.973" style="enable-background:new 0 0 197.973 197.973;" xml:space="preserve">
<path style="fill:#FFDD95;" d="M167.134,51.2l-27.187-3.413v5.12c0-4.712-3.821-8.533-8.533-8.533c-4.712,0-8.533,3.821-8.533,8.533
	V51.2v17.067v27.769c0,6.267,4.381,11.489,10.24,12.832v27.665h44.373v-27.665c5.859-1.345,10.24-6.566,10.24-12.832V71.799
	C187.733,60.423,178.51,51.2,167.134,51.2z"/>
<path d="M177.493,139.947H133.12c-1.884,0-3.413-1.529-3.413-3.413v-25.178c-6.146-2.524-10.24-8.487-10.24-15.321V51.2
	c0-0.676,0.196-1.309,0.536-1.838c1.514-4.862,6.057-8.402,11.411-8.402c3.249,0,6.202,1.306,8.358,3.418
	c0.198-0.01,0.401-0.005,0.601,0.022l26.984,3.388c13.14,0.118,23.791,10.844,23.791,24.011v24.235
	c0,6.833-4.094,12.795-10.24,15.321v25.178C180.907,138.417,179.377,139.947,177.493,139.947z M136.533,133.12h37.547v-24.252
	c0-1.592,1.099-2.971,2.65-3.326c4.468-1.026,7.59-4.934,7.59-9.506V71.801c0-9.477-7.709-17.186-17.186-17.186
	c-0.142,0-0.285-0.009-0.425-0.027l-23.349-2.932v1.251c0,1.884-1.529,3.413-3.413,3.413s-3.413-1.529-3.413-3.413
	c0-2.823-2.297-5.12-5.12-5.12c-2.823,0-5.12,2.297-5.12,5.12v43.129c0,4.574,3.121,8.482,7.59,9.506
	c1.551,0.355,2.65,1.736,2.65,3.326V133.12z"/>
<path d="M139.947,68.267c-1.884,0-3.413-1.529-3.413-3.413V47.787c0-1.884,1.529-3.413,3.413-3.413s3.413,1.529,3.413,3.413v17.067
	C143.36,66.738,141.831,68.267,139.947,68.267z"/>
<path d="M157.013,68.267c-1.884,0-3.413-1.529-3.413-3.413v-10.24c0-1.884,1.529-3.413,3.413-3.413s3.413,1.529,3.413,3.413v10.24
	C160.427,66.738,158.897,68.267,157.013,68.267z"/>
<path d="M170.667,68.267c-1.884,0-3.413-1.529-3.413-3.413v-10.24c0-1.884,1.529-3.413,3.413-3.413s3.413,1.529,3.413,3.413v10.24
	C174.08,66.738,172.551,68.267,170.667,68.267z"/>
<path d="M58.027,68.267c-1.884,0-3.413-1.529-3.413-3.413V47.787c0-1.884,1.529-3.413,3.413-3.413c1.884,0,3.413,1.529,3.413,3.413
	v17.067C61.44,66.738,59.911,68.267,58.027,68.267z"/>
<path d="M27.307,68.267c-1.884,0-3.413-1.529-3.413-3.413v-10.24c0-1.884,1.529-3.413,3.413-3.413s3.413,1.529,3.413,3.413v10.24
	C30.72,66.738,29.191,68.267,27.307,68.267z"/>
<path style="fill:#FFDD95;" d="M68.267,11.947c0-4.712-3.821-8.533-8.533-8.533S51.2,7.235,51.2,11.947l6.827,35.84L44.373,49.5
	v-0.007c0-4.712-3.821-8.533-8.533-8.533s-8.533,3.821-8.533,8.533v2.031c-1.889,0.326-3.651,0.978-5.327,1.78
	C20.738,52.012,19,51.2,17.067,51.2c-3.77,0-6.827,3.057-6.827,6.827V71.68l0.012-0.005c0,0.043-0.012,0.082-0.012,0.125v24.236
	c0,6.267,4.381,11.489,10.24,12.832v27.665h44.373v-27.665c5.859-1.345,10.24-6.566,10.24-12.832V68.267V51.2L68.267,11.947z"/>
<path d="M64.853,139.947H20.48c-1.884,0-3.413-1.529-3.413-3.413v-25.178c-6.146-2.524-10.24-8.487-10.24-15.321V71.799
	c0-0.019,0-0.036,0-0.055c0-0.022,0-0.043,0-0.065V58.027c0-5.647,4.593-10.24,10.24-10.24c1.958,0,3.826,0.546,5.441,1.568
	c0.473-0.183,0.94-0.348,1.403-0.497c0.331-6.294,5.555-11.312,11.93-11.312c5.265,0,9.747,3.425,11.332,8.163l6.822-0.857
	l-6.147-32.268c-0.039-0.21-0.06-0.423-0.06-0.638C47.787,5.361,53.146,0,59.733,0c6.48,0,11.773,5.187,11.943,11.628l6.781,38.987
	c0.034,0.193,0.051,0.389,0.051,0.585v44.836c0,6.833-4.094,12.795-10.24,15.321v25.177
	C68.267,138.417,66.737,139.947,64.853,139.947z M23.893,133.12H61.44v-24.252c0-1.592,1.099-2.971,2.65-3.326
	c4.468-1.026,7.59-4.934,7.59-9.506V51.495l-6.775-38.963c-0.034-0.195-0.051-0.389-0.051-0.585c0-2.823-2.297-5.12-5.12-5.12
	c-2.729,0-4.966,2.145-5.113,4.838l6.758,35.483c0.176,0.925-0.038,1.884-0.592,2.647c-0.555,0.761-1.399,1.261-2.336,1.379
	L44.797,52.89c-0.966,0.123-1.949-0.177-2.683-0.826c-0.734-0.649-1.155-1.58-1.155-2.56c0-2.831-2.297-5.129-5.12-5.129
	s-5.12,2.297-5.12,5.12v2.031c0,1.661-1.195,3.081-2.831,3.364c-1.384,0.241-2.835,0.729-4.432,1.495
	c-1.329,0.635-2.917,0.348-3.939-0.715c-0.652-0.681-1.522-1.056-2.449-1.056c-1.882,0-3.413,1.531-3.413,3.413v13.368
	c0.01,0.114,0.014,0.232,0.01,0.348c0,0.06-0.005,0.133-0.01,0.207v24.084c0,4.574,3.121,8.482,7.59,9.506
	c1.551,0.355,2.65,1.736,2.65,3.326V133.12z M71.68,11.947h0.017H71.68z"/>
<rect x="13.653" y="136.533" style="fill:#EE5281;" width="54.613" height="58.027"/>
<path d="M68.267,197.973H13.653c-1.884,0-3.413-1.529-3.413-3.413v-58.027c0-1.884,1.529-3.413,3.413-3.413h54.613
	c1.884,0,3.413,1.529,3.413,3.413v58.027C71.68,196.444,70.151,197.973,68.267,197.973z M17.067,191.147h47.787v-51.2H17.067
	V191.147z"/>
<rect x="129.707" y="136.533" style="fill:#FEDA38;" width="54.613" height="58.027"/>
<path d="M184.32,197.973h-54.613c-1.884,0-3.413-1.529-3.413-3.413v-58.027c0-1.884,1.529-3.413,3.413-3.413h54.613
	c1.884,0,3.413,1.529,3.413,3.413v58.027C187.733,196.444,186.204,197.973,184.32,197.973z M133.12,191.147h47.787v-51.2H133.12
	V191.147z"/>
<path style="fill:#FFDD95;" d="M41.644,52.27l29.022-35.792c2.968-3.661,8.342-4.222,12.003-1.254l0,0
	c3.661,2.968,4.222,8.342,1.254,12.003L54.902,63.019"/>
<path d="M54.9,66.432c-0.756,0-1.516-0.249-2.149-0.761c-1.464-1.188-1.688-3.337-0.502-4.801l29.022-35.794
	c1.778-2.191,1.44-5.422-0.753-7.2c-2.193-1.78-5.422-1.444-7.202,0.751L44.297,54.42c-1.188,1.463-3.338,1.686-4.801,0.502
	c-1.464-1.188-1.688-3.337-0.502-4.801l29.022-35.794c4.151-5.115,11.687-5.902,16.804-1.754c5.117,4.149,5.903,11.687,1.756,16.804
	L57.554,65.171C56.878,66,55.893,66.432,54.9,66.432z"/>
<g>
</g>
<g>
</g>
<g>
</g>
<g>
</g>
<g>
</g>
<g>
</g>
<g>
</g>
<g>
</g>
<g>
</g>
<g>
</g>
<g>
</g>
<g>
</g>
<g>
</g>
<g>
</g>
<g>
</g>
</svg>
