<?xml version="1.0" encoding="iso-8859-1"?>
<!-- Generator: Adobe Illustrator 19.0.0, SVG Export Plug-In . SVG Version: 6.00 Build 0)  -->
<svg version="1.1" id="Capa_1" xmlns="http://www.w3.org/2000/svg" xmlns:xlink="http://www.w3.org/1999/xlink" x="0px" y="0px"
	 viewBox="0 0 490.667 490.667" style="enable-background:new 0 0 490.667 490.667;" xml:space="preserve">
<path style="fill:#607D8B;" d="M480,320H341.333V170.667H480c5.891,0,10.667-4.776,10.667-10.667s-4.776-10.667-10.667-10.667
	H341.333V10.667C341.333,4.776,336.558,0,330.667,0C324.776,0,320,4.776,320,10.667v138.667H170.667V10.667
	C170.667,4.776,165.891,0,160,0s-10.667,4.776-10.667,10.667v138.667H10.667C4.776,149.333,0,154.109,0,160
	s4.776,10.667,10.667,10.667h138.667V320H10.667C4.776,320,0,324.776,0,330.667c0,5.891,4.776,10.667,10.667,10.667h138.667V480
	c0,5.891,4.776,10.667,10.667,10.667s10.667-4.776,10.667-10.667V341.333H320V480c0,5.891,4.776,10.667,10.667,10.667
	c5.891,0,10.667-4.776,10.667-10.667V341.333H480c5.891,0,10.667-4.776,10.667-10.667C490.667,324.776,485.891,320,480,320z
	 M170.667,320V170.667H320V320H170.667z"/>
<g>
	<circle style="fill:#FFC107;" cx="74.667" cy="74.667" r="53.333"/>
	<circle style="fill:#FFC107;" cx="416" cy="245.333" r="53.333"/>
	<circle style="fill:#FFC107;" cx="245.333" cy="416" r="53.333"/>
</g>
<g>
	<path style="fill:#009688;" d="M295.552,195.115c-4.165-4.164-10.917-4.164-15.083,0l-35.136,35.136l-35.115-35.136
		c-4.237-4.092-10.99-3.975-15.083,0.262c-3.992,4.134-3.992,10.687,0,14.82l35.115,35.136l-35.136,35.115
		c-4.237,4.092-4.355,10.845-0.262,15.083c4.092,4.237,10.845,4.355,15.083,0.262c0.089-0.086,0.176-0.173,0.262-0.262
		l35.136-35.115l35.115,35.115c4.237,4.092,10.99,3.975,15.083-0.262c3.992-4.134,3.992-10.687,0-14.82l-35.115-35.115
		l35.115-35.115c4.177-4.154,4.195-10.908,0.04-15.085C295.565,195.127,295.558,195.121,295.552,195.115z"/>
	<path style="fill:#009688;" d="M124.885,365.781c-4.165-4.164-10.917-4.164-15.083,0l-35.136,35.136l-35.115-35.136
		c-4.237-4.093-10.99-3.976-15.083,0.262c-3.993,4.134-3.993,10.687,0,14.821L59.584,416l-35.136,35.115
		c-4.237,4.093-4.354,10.845-0.262,15.083s10.845,4.354,15.083,0.262c0.089-0.086,0.176-0.173,0.262-0.262l35.136-35.115
		l35.115,35.115c4.093,4.237,10.845,4.354,15.083,0.262c4.237-4.093,4.354-10.845,0.262-15.083
		c-0.086-0.089-0.173-0.176-0.262-0.262L89.749,416l35.115-35.115c4.177-4.154,4.195-10.908,0.04-15.085
		C124.898,365.794,124.892,365.788,124.885,365.781z"/>
	<path style="fill:#009688;" d="M431.083,74.667l35.115-35.115c4.237-4.093,4.354-10.845,0.262-15.083
		c-4.093-4.237-10.845-4.354-15.083-0.262c-0.089,0.086-0.176,0.173-0.262,0.262L416,59.584l-35.115-35.136
		c-4.237-4.093-10.99-3.976-15.083,0.262c-3.993,4.134-3.993,10.687,0,14.821l35.115,35.136l-35.136,35.115
		c-4.237,4.093-4.354,10.845-0.262,15.083c4.093,4.237,10.845,4.354,15.083,0.262c0.089-0.086,0.176-0.173,0.262-0.262L416,89.749
		l35.115,35.115c4.093,4.237,10.845,4.355,15.083,0.262c4.237-4.093,4.354-10.845,0.262-15.083
		c-0.086-0.089-0.173-0.176-0.262-0.262L431.083,74.667z"/>
</g>
<g>
</g>
<g>
</g>
<g>
</g>
<g>
</g>
<g>
</g>
<g>
</g>
<g>
</g>
<g>
</g>
<g>
</g>
<g>
</g>
<g>
</g>
<g>
</g>
<g>
</g>
<g>
</g>
<g>
</g>
</svg>
