<svg width="583" height="801" viewBox="0 0 583 801" fill="none" xmlns="http://www.w3.org/2000/svg">
<rect width="583" height="801" fill="white"/>
<g id="gameboy-monochrome 1" clip-path="url(#clip0)">
<g id="Layer 2">
<g id="vector">
<path id="Vector" d="M479.1 162.08C474.267 156.88 469.423 151.76 464.57 146.72V333.29C474.5 354.48 494.23 396.8 511.14 434.51C546.68 411.03 572.73 386.51 580.14 357.27C594.36 300.26 537.78 225.24 479.1 162.08Z" fill="#F2F2F2"/>
<path id="Vector_2" d="M82.44 483.46C82.59 483.23 82.73 482.99 82.88 482.75C82.73 483 82.59 483.23 82.44 483.46Z" fill="#F2F2F2"/>
<path id="Vector_3" d="M80.82 486.1L81.33 485.28L80.82 486.1Z" fill="#F2F2F2"/>
<path id="Vector_4" d="M79.21 488.67L79.78 487.77L79.21 488.67Z" fill="#F2F2F2"/>
<path id="Vector_5" d="M84.08 480.77L84.41 480.23L84.08 480.77Z" fill="#F2F2F2"/>
<path id="Vector_6" d="M89 344V54.6C71 64.58 55.17 77.12 42.48 92.37C-8.51001 154 -7.68001 259.47 14.12 362.16C20.4615 392.727 28.973 422.803 39.59 452.16C55.46 416.17 76.28 371.24 89 344Z" fill="#F2F2F2"/>
<path id="Vector_7" d="M77.62 491.17L78.22 490.23L77.62 491.17Z" fill="#F2F2F2"/>
<path id="Vector_8" d="M70.05 502.49L70.74 501.49L70.05 502.49Z" fill="#F2F2F2"/>
<path id="Vector_9" d="M67.18 506.44L67.92 505.44L67.18 506.44Z" fill="#F2F2F2"/>
<path id="Vector_10" d="M68.61 504.5L69.32 503.5L68.61 504.5Z" fill="#F2F2F2"/>
<path id="Vector_11" d="M65.62 508.5L66.56 507.28L65.62 508.5Z" fill="#F2F2F2"/>
<path id="Vector_12" d="M74.52 495.94L75.17 494.94L74.52 495.94Z" fill="#F2F2F2"/>
<path id="Vector_13" d="M76.05 493.6L76.69 492.6L76.05 493.6Z" fill="#F2F2F2"/>
<path id="Vector_14" d="M73 498.21L73.67 497.21L73 498.21Z" fill="#F2F2F2"/>
<path id="Vector_15" d="M71.51 500.4L72.19 499.4L71.51 500.4Z" fill="#F2F2F2"/>
<path id="Vector_16" d="M538.57 755.13C534.57 743.13 519.36 680.51 519.36 670.21C519.36 659.91 540.87 520.21 540.87 507.5C540.87 497.04 485.02 376.94 465.1 334.44" stroke="black" stroke-width="2.5" stroke-linecap="round" stroke-linejoin="round"/>
<path id="Vector_17" d="M342.91 644.92C361.91 666.25 407.25 778.74 407.25 799.29" stroke="black" stroke-width="2.5" stroke-linecap="round" stroke-linejoin="round"/>
<path id="Vector_18" d="M20 755.13C24 743.13 39.21 680.51 39.21 670.21C39.21 659.91 17.7 520.21 17.7 507.5C17.71 497.75 66.29 392.63 89 344" stroke="black" stroke-width="2.5" stroke-linecap="round" stroke-linejoin="round"/>
<path id="Vector_19" d="M216.29 644.25C197.69 663.75 151.29 778.51 151.29 799.25" stroke="black" stroke-width="2.5" stroke-linecap="round" stroke-linejoin="round"/>
<path id="Vector_20" d="M89 344L89.14 343.7" stroke="black" stroke-width="2.5" stroke-linecap="round" stroke-linejoin="round"/>
<path id="Vector_21" d="M88.99 38.86H464.57" stroke="black" stroke-width="2.5" stroke-linecap="round" stroke-linejoin="round"/>
<path id="Vector_22" d="M119.35 1.25V38.86" stroke="black" stroke-width="2.5" stroke-linecap="round" stroke-linejoin="round"/>
<path id="Vector_23" d="M443.78 1.25V38.86" stroke="black" stroke-width="2.5" stroke-linecap="round" stroke-linejoin="round"/>
<path id="Vector_24" d="M199.17 16.11H141.86C137.425 16.11 133.83 19.7051 133.83 24.14C133.83 28.5748 137.425 32.17 141.86 32.17H199.17C203.605 32.17 207.2 28.5748 207.2 24.14C207.2 19.7051 203.605 16.11 199.17 16.11Z" stroke="black" stroke-width="2.5" stroke-linecap="round" stroke-linejoin="round"/>
<path id="Vector_25" d="M244.283 522.344L213.189 537.543C210.589 538.814 209.511 541.952 210.782 544.552L211.279 545.568C212.55 548.168 215.688 549.245 218.287 547.974L249.381 532.775C251.981 531.504 253.059 528.366 251.788 525.766L251.292 524.751C250.021 522.151 246.883 521.073 244.283 522.344Z" fill="black"/>
<path id="Vector_26" d="M309.997 522.337L278.903 537.537C276.303 538.807 275.226 541.945 276.497 544.545L276.993 545.561C278.264 548.161 281.402 549.238 284.002 547.967L315.096 532.768C317.696 531.497 318.773 528.359 317.503 525.759L317.006 524.744C315.735 522.144 312.597 521.066 309.997 522.337Z" fill="black"/>
<path id="Vector_27" d="M362.48 473.93C375.127 473.93 385.38 463.677 385.38 451.03C385.38 438.383 375.127 428.13 362.48 428.13C349.833 428.13 339.58 438.383 339.58 451.03C339.58 463.677 349.833 473.93 362.48 473.93Z" fill="black"/>
<g id="left-hand">
<path id="Vector_28" d="M148.94 683.16C156.65 649.41 147.08 542.3 130.6 530.34C149.74 510.41 180.6 421.11 180.6 385.63C180.6 362.11 171.03 328.89 163.6 328.89C150.8 355.47 92.87 475.06 63.9 510.68C60.37 514.76 58.05 552.81 62.49 593.23" stroke="black" stroke-width="2.5" stroke-linecap="round" stroke-linejoin="round"/>
</g>
<g id="right-hand">
<path id="Vector_29" d="M409.64 683.16C401.93 649.41 411.5 542.3 428 530.34C408.87 510.41 378 421.11 378 385.63C378 362.11 387.57 328.89 395 328.89C407.76 355.47 465.69 475.06 494.66 510.68C497.85 514.37 500.05 545.8 497.17 581.68" stroke="black" stroke-width="2.5" stroke-linecap="round" stroke-linejoin="round"/>
</g>
<path id="Vector_30" d="M406.55 641.09C398.91 643.382 390.976 644.541 383 644.53H151.63" stroke="black" stroke-width="2.5" stroke-linecap="round" stroke-linejoin="round"/>
<path id="Vector_31" d="M89 472.42V13.51C89 10.2602 90.2903 7.14331 92.5873 4.8444C94.8844 2.5455 98.0002 1.25265 101.25 1.25H452.3C455.552 1.25 458.672 2.54135 460.973 4.84026C463.273 7.13917 464.567 10.2575 464.57 13.51V463.71" stroke="black" stroke-width="2.5" stroke-linecap="round" stroke-linejoin="round"/>
<path id="Vector_32" d="M183.18 393.41H180.18C177.9 417.83 166.18 457.57 153.41 488.64C153.766 489.024 154.198 489.331 154.678 489.541C155.158 489.751 155.676 489.859 156.2 489.86H183.2C183.703 489.857 184.201 489.755 184.665 489.56C185.129 489.364 185.549 489.079 185.902 488.72C186.256 488.361 186.534 487.936 186.723 487.47C186.911 487.003 187.005 486.503 187 486V397.23C187 396.217 186.598 395.245 185.881 394.529C185.165 393.812 184.193 393.41 183.18 393.41Z" fill="black"/>
<path id="Vector_33" d="M214.09 424.32H174.51C171.79 435.39 168.32 447.26 164.41 458.95H214.09C215.103 458.95 216.075 458.548 216.791 457.831C217.508 457.115 217.91 456.143 217.91 455.13V428.13C217.907 427.119 217.504 426.15 216.788 425.435C216.071 424.721 215.101 424.32 214.09 424.32V424.32Z" fill="black"/>
<path id="Vector_34" d="M446 430.11C447.664 426.855 448.525 423.25 448.51 419.595C448.496 415.939 447.607 412.341 445.917 409.1C444.227 405.858 441.786 403.068 438.798 400.964C435.81 398.859 432.361 397.5 428.74 397C434.26 407.78 440.09 419 446 430.11Z" fill="black"/>
</g>
</g>
<path id="Rectangle 2" d="M136.5 69.5H429.5V296.5H136.5V69.5Z" fill="#FBFBFB" stroke="black"/>
<g id="car2">
<path id="Rectangle 6" d="M200 219H219V231H200V219Z" fill="black"/>
<path id="Rectangle 8" d="M181 219H200V231H181V219Z" fill="black"/>
<path id="Rectangle 7" d="M200 245H219V257H200V245Z" fill="black"/>
<path id="Rectangle 9" d="M181 245H200V257H181V245Z" fill="black"/>
<rect id="Rectangle 3" x="188" y="211" width="24" height="55" fill="#C4C4C4"/>
</g>
<g id="car1">
<path id="Rectangle 6_2" d="M388 193H407V205H388V193Z" fill="black"/>
<path id="Rectangle 8_2" d="M369 193H388V205H369V193Z" fill="black"/>
<path id="Rectangle 7_2" d="M388 219H407V231H388V219Z" fill="black"/>
<path id="Rectangle 9_2" d="M369 219H388V231H369V219Z" fill="black"/>
<rect id="Rectangle 3_2" x="376" y="185" width="24" height="55" fill="#C4C4C4"/>
</g>
<g id="car3">
<path id="Rectangle 6_3" d="M296 158H315V170H296V158Z" fill="black"/>
<path id="Rectangle 8_3" d="M277 158H296V170H277V158Z" fill="black"/>
<path id="Rectangle 7_3" d="M296 184H315V196H296V184Z" fill="black"/>
<path id="Rectangle 9_3" d="M277 184H296V196H277V184Z" fill="black"/>
<rect id="Rectangle 3_3" x="284" y="150" width="24" height="55" fill="#C4C4C4"/>
</g>
</g>
<defs>
<clipPath id="clip0">
<rect width="582.34" height="800.54" fill="white"/>
</clipPath>
</defs>
</svg>
