<svg width="789" height="791" viewBox="0 0 789 791" fill="none" xmlns="http://www.w3.org/2000/svg">
<rect width="789" height="791" fill="#E5E5E5"/>
<g id="drawkit-grape-pack-illustration-2 1" clip-path="url(#clip0)">
<g id="Layer 2">
<g id="Layer 1">
<path id="Vector" d="M623.378 178.9C702.608 248.24 789.318 320.11 797.768 400.22C806.438 480.54 736.468 569.11 657.208 618.79C577.948 668.47 489.368 679.24 382.828 696.79C276.508 714.54 152.428 739.27 80.6084 689.6C8.78844 639.93 -10.9216 515.84 33.8884 436.6C78.6984 357.36 188.148 323.07 260.018 253.52C331.888 184.19 366.128 79.77 419.188 61.16C472.248 42.35 544.118 109.57 623.378 178.9Z" fill="#F2F2F2"/>
<path id="Vector_2" d="M737.118 405C737.118 419.064 732.948 432.813 725.134 444.507C717.321 456.201 706.215 465.315 693.221 470.697C680.227 476.079 665.93 477.487 652.136 474.744C638.342 472 625.671 465.227 615.726 455.282C605.781 445.337 599.009 432.667 596.265 418.873C593.521 405.079 594.929 390.781 600.311 377.787C605.694 364.794 614.808 353.688 626.502 345.874C638.196 338.061 651.944 333.89 666.008 333.89C684.868 333.89 702.955 341.382 716.291 354.718C729.627 368.053 737.118 386.14 737.118 405" fill="white"/>
<path id="Vector_3" d="M378.968 789.66H757.048" stroke="#1B3C87" stroke-width="3.69" stroke-linecap="round" stroke-linejoin="round"/>
<path id="Vector_4" d="M11.4584 789.66H290.048" stroke="#1B3C87" stroke-width="3.69" stroke-linecap="round" stroke-linejoin="round"/>
<g id="hand">
<path id="Vector_5" d="M359.668 473.13C359.538 467.86 402.978 330.72 407.878 326.06C409.487 324.436 411.42 323.169 413.552 322.342C415.683 321.515 417.965 321.146 420.248 321.26C422.408 321.36 432.788 326.26 434.978 331.43C431.238 340.29 422.228 345.21 422.228 345.21L404.698 453.53L359.668 473.13Z" fill="white"/>
<path id="Vector_6" d="M399.378 328.49C401.038 324.29 402.258 321.64 402.868 321.05C404.477 319.426 406.41 318.159 408.542 317.332C410.673 316.505 412.955 316.136 415.238 316.25C417.398 316.35 427.778 321.25 429.968 326.42" stroke="#1B3C87" stroke-width="3.69" stroke-linecap="round" stroke-linejoin="round"/>
<path id="Vector_7" d="M366.908 425.3C374.278 401.74 383.638 372.93 391.018 351.55" stroke="#1B3C87" stroke-width="3.69" stroke-linecap="round" stroke-linejoin="round"/>
<path id="Vector_8" d="M354.658 467.41C354.658 466.41 356.128 460.88 358.598 452.49" stroke="#1B3C87" stroke-width="3.69" stroke-linecap="round" stroke-linejoin="round"/>
<path id="Vector_9" d="M416.918 325.3C419.058 325.64 424.228 328.79 426.918 331.94" stroke="#1B3C87" stroke-width="3.69" stroke-linecap="round" stroke-linejoin="round"/>
<path id="Vector_10" d="M410.928 332.89C413.058 333.23 418.238 336.38 420.928 339.53" stroke="#1B3C87" stroke-width="3.69" stroke-linecap="round" stroke-linejoin="round"/>
<path id="Vector_11" d="M399.698 447.94C399.868 443.14 411.698 360.36 416.928 344.09" stroke="#1B3C87" stroke-width="3.69" stroke-linecap="round" stroke-linejoin="round"/>
</g>
<path id="Vector_12" d="M412.608 555.37L475.388 633.08L444.938 663.69L352.778 583.12L374.578 553.12L412.608 555.37Z" fill="#3C3744"/>
<path id="Vector_13" d="M453.138 340.23C446.888 340.23 401.528 386 399.668 395.58L385.058 471.17L460.728 450L465.168 353.72L454.388 340.2L453.138 340.23Z" fill="#46DBC9"/>
<path id="Vector_14" d="M396.068 694.47C387.608 686.78 288.358 563.15 288.358 547.85C288.358 513.74 327.058 501.65 337.618 498.99C352.168 497.67 416.708 492.27 426.858 492.69C434.178 500.62 519.178 518.92 531.498 517.34C531.498 523.51 521.698 566.65 452.178 566.65C444.898 566.65 390.088 564.46 389.068 564.46C389.068 577.29 424.198 660.8 427.548 666.46" fill="#3C3744"/>
<path id="Vector_15" d="M486.008 317.87C542.278 317.87 554.458 419.38 554.458 448.19C554.458 484.92 539.558 514.27 532.458 517.02C512.348 524.75 438.528 499.43 433.848 487.44C411.028 429.04 448.588 317.87 486.048 317.87" fill="#46DBC9"/>
<path id="Vector_16" d="M443.358 493.2C435.458 489.26 429.968 485.43 428.798 482.43C421.798 464.43 420.468 441.38 423.148 418.13" stroke="#1B3C87" stroke-width="3.69" stroke-linecap="round" stroke-linejoin="round"/>
<path id="Vector_17" d="M541.658 385.27C547.518 408.77 549.448 431.72 549.448 443.18C549.448 479.92 534.548 509.27 527.448 512.01C518.018 515.64 496.798 512.01 476.448 505.87" stroke="#1B3C87" stroke-width="3.69" stroke-linecap="round" stroke-linejoin="round"/>
<path id="Vector_18" d="M473.528 314.3C475.913 313.368 478.448 312.88 481.008 312.86C495.838 312.86 507.608 319.92 516.898 330.86" stroke="#1B3C87" stroke-width="3.69" stroke-linecap="round" stroke-linejoin="round"/>
<path id="Vector_19" d="M434.368 369.59C438.202 358.446 443.232 347.751 449.368 337.69" stroke="#1B3C87" stroke-width="3.69" stroke-linecap="round" stroke-linejoin="round"/>
<path id="Vector_20" d="M425.108 354.12C432.388 346.33 441.208 337.96 448.288 334.57" stroke="#1B3C87" stroke-width="3.69" stroke-linecap="round" stroke-linejoin="round"/>
<path id="Vector_21" d="M195.518 396L241.518 470.76" stroke="#1B3C87" stroke-width="3.69" stroke-linecap="round" stroke-linejoin="round"/>
<path id="Vector_22" d="M526.488 512.33C526.488 518.5 516.698 561.64 447.168 561.64C439.888 561.64 385.078 559.45 384.058 559.45C384.058 572.28 419.188 655.79 422.538 661.45" stroke="#1B3C87" stroke-width="3.69" stroke-linecap="round" stroke-linejoin="round"/>
<path id="Vector_23" d="M332.608 494C322.398 497.82 283.338 508.75 283.338 542.86C283.338 558.16 382.568 681.79 391.048 689.48" stroke="#1B3C87" stroke-width="3.69" stroke-linecap="round" stroke-linejoin="round"/>
<path id="Vector_24" d="M386.098 695L431.608 666" stroke="#1B3C87" stroke-width="3.69" stroke-linecap="round" stroke-linejoin="round"/>
<path id="Vector_25" d="M409.828 632.33L438.988 658.68" stroke="#1B3C87" stroke-width="3.69" stroke-linecap="round" stroke-linejoin="round"/>
<path id="Vector_26" d="M426.938 574.17L470.338 628.08" stroke="#1B3C87" stroke-width="3.69" stroke-linecap="round" stroke-linejoin="round"/>
<path id="Vector_27" d="M475.368 624.21L437.018 661.48" stroke="#1B3C87" stroke-width="3.69" stroke-linecap="round" stroke-linejoin="round"/>
<path id="Vector_28" d="M174.718 756.52V789.66" stroke="#1B3C87" stroke-width="3.69" stroke-linecap="round" stroke-linejoin="round"/>
<path id="Vector_29" d="M174.718 494V695" stroke="#1B3C87" stroke-width="3.69" stroke-linecap="round" stroke-linejoin="round"/>
<path id="Vector_30" d="M327.758 494V789.66" stroke="#1B3C87" stroke-width="3.69" stroke-linecap="round" stroke-linejoin="round"/>
<path id="Vector_31" d="M505.728 342.43C532.518 351.75 518.878 409.13 511.338 411.07C503.798 413.01 458.338 395.02 456.918 390.18C455.498 385.34 474.438 331.53 505.728 342.43Z" fill="#46DBC9"/>
<path id="Vector_32" d="M471.718 345.88C479.468 338.11 489.268 333.43 500.718 337.42C527.508 346.74 513.868 404.12 506.318 406.06C498.768 408 453.318 390.01 451.898 385.17C451.558 384.03 452.348 380.17 454.178 375.05" stroke="#1B3C87" stroke-width="3.69" stroke-linecap="round" stroke-linejoin="round"/>
<path id="Vector_33" d="M460.048 393C457.868 396.2 445.798 435.23 445.798 435.23C445.798 435.23 360.528 472 356.278 473.9C354.728 471.78 349.628 467.9 339.278 467.9C320.328 467.9 317.048 480.47 317.048 483.17C317.048 485.87 345.858 491.87 353.588 491.68C361.318 491.49 469.408 475.05 473.268 473.12C477.128 471.19 502.998 410.12 502.998 410.12C495.998 409.75 463.728 399.76 460.068 393.01" fill="white"/>
<path id="Vector_34" d="M406.288 478.6C379.008 482.77 352.288 486.6 348.558 486.68C340.828 486.88 312.018 480.88 312.018 478.17C312.018 475.46 315.298 462.9 334.248 462.9C344.618 462.9 349.718 466.77 351.248 468.9C355.498 466.97 440.768 430.23 440.768 430.23C440.768 430.23 452.838 391.23 455.018 388" stroke="#1B3C87" stroke-width="3.69" stroke-linecap="round" stroke-linejoin="round"/>
<path id="Vector_35" d="M497.968 405.1C497.968 405.1 472.108 466.19 468.238 468.1C467.138 468.65 457.608 470.38 444.358 472.56" stroke="#1B3C87" stroke-width="3.69" stroke-linecap="round" stroke-linejoin="round"/>
<path id="Vector_36" d="M588.468 563.86H423.438V579.17H588.468V563.86Z" fill="#8088DC"/>
<path id="Vector_37" d="M521.698 574.17H418.418V558.86H583.418V574.17H554.418" stroke="#1B3C87" stroke-width="3.69" stroke-linecap="round" stroke-linejoin="round"/>
<path id="Vector_38" d="M381.078 485.67H129.988V498.27H381.078V485.67Z" fill="#8088DC"/>
<path id="Vector_39" d="M195.518 481.38H376.788V494H125.698V481.4H164.338" stroke="#1B3C87" stroke-width="3.69" stroke-linecap="round" stroke-linejoin="round"/>
<path id="Vector_40" d="M334.258 475.07H245.828V485.67H334.258V475.07Z" fill="#FB5D64"/>
<path id="Vector_41" d="M329.968 470.78H241.538V481.38H329.968V470.78Z" stroke="#1B3C87" stroke-width="3.69" stroke-linecap="round" stroke-linejoin="round"/>
<path id="Vector_42" d="M454.608 669.8L447.458 663.27" stroke="#1B3C87" stroke-width="3.69" stroke-linecap="round" stroke-linejoin="round"/>
<g id="legs">
<path id="Vector_43" d="M391.058 703L437.988 674.57" stroke="#1B3C87" stroke-width="3.69" stroke-linecap="round" stroke-linejoin="round"/>
<path id="Vector_44" d="M480.208 631.4L441.858 668.67" stroke="#1B3C87" stroke-width="3.69" stroke-linecap="round" stroke-linejoin="round"/>
<path id="Vector_45" d="M399.678 705.83L428.678 737.54L412.818 781.54L461.468 743.71L433.268 685.54" fill="white"/>
<path id="Vector_46" d="M445.128 715.32L428.238 680.5" stroke="#1B3C87" stroke-width="3.69" stroke-linecap="round" stroke-linejoin="round"/>
<path id="Vector_47" d="M394.678 700.82L423.678 732.53L407.828 776.53L456.468 738.7L451.508 728.5" stroke="#1B3C87" stroke-width="3.69" stroke-linecap="round" stroke-linejoin="round"/>
<path id="Vector_48" d="M479.138 642.31L495.288 669.73L506.438 675.53L485.218 724.81L480.378 693.81L452.378 668.28" fill="white"/>
<path id="Vector_49" d="M474.128 637.31L490.278 664.72L501.428 670.53L480.208 719.81L475.368 688.81L469.368 683.33" stroke="#1B3C87" stroke-width="3.69" stroke-linecap="round" stroke-linejoin="round"/>
</g>
<path id="Vector_50" d="M461.038 574.17V788.17" stroke="#1B3C87" stroke-width="3.69" stroke-linecap="round" stroke-linejoin="round"/>
<path id="Vector_51" d="M540.848 655.85V788.2" stroke="#1B3C87" stroke-width="3.69" stroke-linecap="round" stroke-linejoin="round"/>
<path id="Vector_52" d="M540.848 574.17V619.25" stroke="#1B3C87" stroke-width="3.69" stroke-linecap="round" stroke-linejoin="round"/>
<g id="face">
<path id="Vector_53" d="M446.228 275.66L444.678 283.12L434.278 286.36C434.278 286.36 429.128 270.3 428.418 266.67C423.418 270.4 394.598 278.48 389.628 279.2C388.938 275.33 388.938 241.79 416.898 241.79C441.528 241.79 452.568 266.46 453.218 269.35C451.778 270.19 446.218 272.25 446.218 275.66" fill="#EECB55"/>
<path id="Vector_54" d="M391.428 293C380.918 272.58 385.368 249.36 401.368 241.13C406.571 238.5 412.483 237.613 418.228 238.6" stroke="#1B3C87" stroke-width="3.69" stroke-linecap="round" stroke-linejoin="round"/>
<path id="Vector_55" d="M446.978 309.18C444.836 311.587 442.27 313.58 439.408 315.06C428.488 320.68 415.008 317.86 404.218 309.01" stroke="#1B3C87" stroke-width="3.69" stroke-linecap="round" stroke-linejoin="round"/>
<path id="Vector_56" d="M442.658 272.08C443.301 270.462 444.372 269.049 445.757 267.994C447.141 266.938 448.787 266.279 450.517 266.088C452.248 265.897 453.998 266.18 455.579 266.908C457.161 267.636 458.515 268.78 459.495 270.219C460.476 271.657 461.046 273.336 461.146 275.074C461.245 276.812 460.869 278.544 460.058 280.085C459.248 281.626 458.033 282.917 456.544 283.82C455.056 284.723 453.349 285.203 451.608 285.21C450.16 285.201 448.733 284.859 447.438 284.21" stroke="#1B3C87" stroke-width="3.69" stroke-linecap="round" stroke-linejoin="round"/>
<path id="Vector_57" d="M450.758 342.18C449.348 337.13 444.278 321.57 437.948 315.75" stroke="#1B3C87" stroke-width="3.69" stroke-linecap="round" stroke-linejoin="round"/>
<path id="Vector_58" d="M455.808 287.61C457.758 294.17 475.388 317.82 479.728 321.1C479.468 323.95 473.858 329.46 467.548 334.1" stroke="#1B3C87" stroke-width="3.69" stroke-linecap="round" stroke-linejoin="round"/>
<path id="Vector_59" d="M433.278 282L441.108 279.57L442.658 272.1" stroke="#1B3C87" stroke-width="3.69" stroke-linecap="round" stroke-linejoin="round"/>
<path id="Vector_60" d="M412.218 268.32C418.038 266.38 423.008 264.45 424.848 263.09C425.358 265.73 428.228 274.95 429.748 279.77" stroke="#1B3C87" stroke-width="3.69" stroke-linecap="round" stroke-linejoin="round"/>
<path id="Vector_61" d="M412.818 279.51C413.308 281.21 414.448 282.37 415.368 282.1C416.288 281.83 416.648 280.25 416.158 278.56C415.668 276.87 414.538 275.7 413.608 276C412.678 276.3 412.338 277.85 412.818 279.54" fill="#1B3C87"/>
<path id="Vector_62" d="M401.718 298.2C401.598 298.831 401.403 299.445 401.138 300.03" stroke="#1B3C87" stroke-width="3.14" stroke-linecap="round" stroke-linejoin="round"/>
<path id="Vector_63" d="M400.658 288.29C401.453 290.497 401.892 292.816 401.958 295.16" stroke="#1B3C87" stroke-width="3.14" stroke-linecap="round" stroke-linejoin="round"/>
<path id="Vector_64" d="M428.018 297.24C428.308 299.48 426.738 302.96 423.708 304.99" stroke="#1B3C87" stroke-width="3.14" stroke-linecap="round" stroke-linejoin="round"/>
</g>
<g id="triangle">
<path id="Vector_65" d="M288.358 72.23L334.258 180.12L430.608 113.23L288.358 72.23Z" stroke="#B2C3FB" stroke-width="3" stroke-linecap="round" stroke-linejoin="round"/>
</g>
<g id="invisibles">
<path id="Vector_66" d="M734.208 32.63H493.488V214.89H734.208V32.63Z" fill="#D7E0FF"/>
<path id="Vector_67" d="M693.938 66.9H623.448V193.28H693.938V66.9Z" fill="#EAF0FF"/>
<path id="Vector_68" d="M600.238 94.7C600.24 100.45 598.537 106.072 595.343 110.854C592.15 115.636 587.61 119.364 582.298 121.565C576.985 123.767 571.14 124.343 565.5 123.222C559.86 122.101 554.679 119.332 550.613 115.266C546.547 111.199 543.778 106.019 542.657 100.379C541.535 94.7389 542.112 88.893 544.313 83.5808C546.515 78.2685 550.242 73.7285 555.024 70.535C559.806 67.3415 565.428 65.638 571.178 65.64C578.886 65.64 586.277 68.7017 591.727 74.1515C597.177 79.6013 600.238 86.9928 600.238 94.7Z" fill="#FB5D64"/>
<path id="Vector_69" d="M781.168 272.93H628.798V425.3H781.168V272.93Z" stroke="#B2C3FB" stroke-width="3" stroke-linecap="round" stroke-linejoin="round"/>
<path id="Vector_70" d="M294.018 255.42H30.5884V334.9H294.018V255.42Z" fill="#D7E0FF"/>
<path id="Vector_71" d="M271.358 294.76C271.36 299.349 270.001 303.835 267.453 307.652C264.905 311.468 261.283 314.444 257.044 316.201C252.805 317.959 248.14 318.419 243.638 317.525C239.137 316.631 235.003 314.423 231.757 311.178C228.512 307.934 226.301 303.8 225.405 299.3C224.509 294.799 224.968 290.134 226.723 285.894C228.479 281.654 231.453 278.03 235.268 275.481C239.084 272.931 243.57 271.57 248.158 271.57C254.31 271.57 260.209 274.013 264.56 278.362C268.91 282.71 271.356 288.609 271.358 294.76" fill="#B2C3FB"/>
<path id="Vector_72" d="M204.338 281.31H73.3984" stroke="#EAF0FF" stroke-width="3.69" stroke-linecap="round" stroke-linejoin="round"/>
<path id="Vector_73" d="M204.338 308.22H134.958" stroke="#EAF0FF" stroke-width="3.69" stroke-linecap="round" stroke-linejoin="round"/>
<path id="Vector_74" d="M384.068 1H227.508V199.66H384.068V1Z" fill="#EAF0FF"/>
<path id="Vector_75" d="M151.758 100.87H61.6084V138.52H151.758V100.87Z" fill="#EAF0FF"/>
<path id="Vector_76" d="M109.808 147.41H19.6584V185.06H109.808V147.41Z" fill="#EAF0FF"/>
</g>
</g>
</g>
</g>
<defs>
<clipPath id="clip0">
<rect width="788.89" height="790.5" fill="white"/>
</clipPath>
</defs>
</svg>
