<svg width="1002" height="1004" viewBox="0 0 1002 1004" fill="none" xmlns="http://www.w3.org/2000/svg">
<rect width="1002" height="1004" fill="#E5E5E5"/>
<g id="drawkit-grape-pack-illustration-10 1">
<g id="Layer 2">
<g id="vector">
<path id="Vector" d="M519.005 246.863C579.466 291.225 621.49 357.917 617.363 419.865C613.236 481.683 562.803 538.756 524.609 604.638C486.414 670.519 460.169 745.45 409.878 764.656C359.451 783.868 284.829 747.343 213.161 717.449C141.493 687.424 72.7779 663.888 34.8803 617.355C-3.02372 570.958 -10.3943 501.421 14.529 448.541C39.4523 395.661 96.5212 359.266 149.457 313.679C202.547 268.098 251.491 213.449 315.504 197.082C379.518 180.715 458.396 202.494 519.005 246.863Z" fill="#F0F0F0"/>
<path id="Vector_2" d="M92.5167 179C32.1527 222.333 54.6191 397.82 178.384 419.96C323.326 445.885 333.122 310.147 443.01 322.321C538.57 332.914 567.252 427.696 508.081 487.13" stroke="white" stroke-width="6" stroke-linecap="round" stroke-linejoin="round" stroke-dasharray="36 36"/>
<path id="Vector_3" d="M224.594 478.938C217.501 476.448 182.086 450.238 179.326 446.104C176.566 441.969 158.239 415.689 158.239 415.689L189.089 394.111C189.089 394.111 216.882 417.026 222.292 421.639C227.702 426.253 248.608 433.617 250.878 433.611C253.148 433.605 224.594 478.938 224.594 478.938Z" fill="white"/>
<path id="Vector_4" d="M216.463 471.479C212.232 469.243 178.172 443.265 174.812 440.189C171.452 437.113 158.046 417.534 155.892 412.856" stroke="#1B3C87" stroke-width="5.43" stroke-linecap="round" stroke-linejoin="round"/>
<path id="Vector_5" d="M449.458 653.567C442.197 656.524 311.996 683.917 289.408 684.165C294.611 710.889 313.944 763.172 315.298 768.477C326.86 765.904 467.688 717.313 472.905 714.124C468.578 706.476 451.851 669.111 449.458 653.567Z" fill="#3B3744"/>
<path id="Vector_6" d="M297.439 234.613L51.8872 356.399C26.5995 368.941 17.1833 397.911 30.8554 421.105C44.5276 444.3 76.1108 452.935 101.399 440.393L346.95 318.608C372.238 306.066 381.654 277.096 367.982 253.901C354.31 230.707 322.727 222.072 297.439 234.613Z" fill="#D7E0FF"/>
<path id="Vector_7" d="M182.679 363.548L156.195 355.752L164.701 331.453" stroke="white" stroke-width="5.3" stroke-linecap="round" stroke-linejoin="round"/>
<path id="Vector_8" d="M226.78 302.186L253.264 309.988L244.765 334.281" stroke="white" stroke-width="5.3" stroke-linecap="round" stroke-linejoin="round"/>
<path id="Vector_9" d="M189.398 299.962L208.447 372.22" stroke="white" stroke-width="5.3" stroke-linecap="round" stroke-linejoin="round"/>
<path id="Vector_10" d="M165.726 302.529C160.78 292.657 129.892 303.073 116.718 313.123C120.38 324.166 124.101 333.884 126.223 336.091C128.822 336.339 167.351 318.452 165.726 302.529Z" fill="white"/>
<path id="Vector_11" d="M305.89 452.545C287.499 438.941 262.163 429.832 254.837 427.058C249.511 429.169 242.663 440.325 236.627 452.983C225.832 471.574 222.44 494.169 222.44 494.169C239.155 503.698 273.828 509.785 279.941 509.785C286.054 509.785 305.89 452.545 305.89 452.545Z" fill="#46DBC9"/>
<path id="Vector_12" d="M339.88 438.266C404.545 424.041 434.098 593.932 448.143 652.981C434.388 662.374 312.377 690.553 288.092 683.55C243.327 575.412 227.792 462.92 339.88 438.266Z" fill="#46DBC9"/>
<path id="Vector_13" d="M334.721 432.351C399.386 418.126 428.939 588.017 442.984 647.066C429.23 656.459 307.218 684.638 282.933 677.635C238.168 569.497 222.634 457.005 334.721 432.351Z" stroke="#1B3C87" stroke-width="5.3" stroke-linecap="round" stroke-linejoin="round"/>
<path id="Vector_14" d="M374.695 544.346C371.303 548.847 340.344 580.877 335.437 583.125C330.529 585.373 311.061 585.083 307.315 583.125C285.422 571.697 214.831 471.107 209.73 461.583C204.63 452.06 197.278 438.562 190.669 433.54C189.605 426.153 195.376 416.482 185.129 404.782C187.012 396.536 181.783 360.1 211.568 374.769C219.409 378.702 230.191 394.123 228.702 406.822C227.212 419.522 225.413 433.949 228.392 439.875C231.371 445.802 312.287 524.809 314.376 525.767C316.955 522.674 327.228 510.317 327.228 510.317L374.695 544.346Z" fill="white"/>
<path id="Vector_15" d="M405.048 459.773C436.336 482.523 398.283 535.261 384.193 549.735C377.745 549.995 321.734 519.746 318.864 507.336C326.983 496.222 370.181 434.416 405.048 459.773Z" fill="#46DBC9"/>
<path id="Vector_16" d="M232.145 493.501C227.234 491.714 222.489 489.564 217.959 487.071C217.578 485.657 218.165 482.493 220.054 476.542" stroke="#1B3C87" stroke-width="5.43" stroke-linecap="round" stroke-linejoin="round"/>
<path id="Vector_17" d="M232.7 444.661C238.736 432.002 244.997 422.071 250.323 419.96C257.649 422.734 281.818 431.015 300.209 444.596" stroke="#1B3C87" stroke-width="5.3" stroke-linecap="round" stroke-linejoin="round"/>
<path id="Vector_18" d="M274.976 486.651C252.993 466.162 228.031 441.833 223.885 432.777C221.118 427.454 223.072 392.496 228.321 385.002" stroke="#1B3C87" stroke-width="5.43" stroke-linecap="round" stroke-linejoin="round"/>
<path id="Vector_19" d="M318.916 508.087C315.537 511.352 312.538 515.564 309.888 518.669C309.127 517.865 304.774 513.937 298.384 508.129" stroke="#1B3C87" stroke-width="5.43" stroke-linecap="round" stroke-linejoin="round"/>
<path id="Vector_20" d="M336.842 571.372C334.102 573.827 331.967 575.548 330.923 576.027C326.015 578.281 306.548 577.985 302.801 576.027C280.908 564.599 210.317 464.009 205.216 454.485C200.116 444.962 192.764 431.464 186.155 426.442" stroke="#1B3C87" stroke-width="5.43" stroke-linecap="round" stroke-linejoin="round"/>
<path id="Vector_21" d="M368.208 539.561C367.131 540.986 363.494 544.932 358.87 549.735" stroke="#1B3C87" stroke-width="5.43" stroke-linecap="round" stroke-linejoin="round"/>
<path id="Vector_22" d="M215.844 401.457C215.199 391.402 208.699 370.007 203.778 365.376" stroke="#1B3C87" stroke-width="5.43" stroke-linecap="round" stroke-linejoin="round"/>
<path id="Vector_23" d="M204.733 401.457C202.985 394.909 196.002 374.378 188.857 364.193" stroke="#1B3C87" stroke-width="5.43" stroke-linecap="round" stroke-linejoin="round"/>
<path id="Vector_24" d="M195.208 406.408C194.892 402.918 188.857 388.208 184.575 384.132" stroke="#1B3C87" stroke-width="5.43" stroke-linecap="round" stroke-linejoin="round"/>
<path id="Vector_25" d="M187.902 413.542C187.109 409.904 182.189 400.15 178.384 396.802" stroke="#1B3C87" stroke-width="5.43" stroke-linecap="round" stroke-linejoin="round"/>
<path id="Vector_26" d="M466.431 707.618C463.206 701.212 446.06 660.511 442.984 647.06" stroke="#1B3C87" stroke-width="5.3" stroke-linecap="round" stroke-linejoin="round"/>
<path id="Vector_27" d="M378.048 736.353C372.889 732.508 352.712 708.553 344.136 697.74" stroke="#1B3C87" stroke-width="5.3" stroke-linecap="round" stroke-linejoin="round"/>
<path id="Vector_28" d="M308.824 761.971C305.832 755.932 285.577 692.535 282.933 677.658" stroke="#1B3C87" stroke-width="5.3" stroke-linecap="round" stroke-linejoin="round"/>
<path id="Vector_29" d="M242.366 427.696C237.091 425.555 226.361 420.658 222.627 419.96" stroke="#1B3C87" stroke-width="5.43" stroke-linecap="round" stroke-linejoin="round"/>
<path id="Vector_30" d="M110.398 435.924L152.204 467.327L146.445 418.043" fill="#D7E0FF"/>
<path id="Vector_31" d="M157.665 294.402C155.125 291.935 132.652 283.122 150.037 318.653" stroke="#1B3C87" stroke-width="5.43" stroke-linecap="round" stroke-linejoin="round"/>
<path id="Vector_32" d="M141.48 299.418C138.9 296.951 116.466 288.138 133.845 323.669" stroke="#1B3C87" stroke-width="5.43" stroke-linecap="round" stroke-linejoin="round"/>
<path id="Vector_33" d="M122.586 307.699C120.123 305.622 101.003 300.009 121.67 332.542" stroke="#1B3C87" stroke-width="5.43" stroke-linecap="round" stroke-linejoin="round"/>
<path id="Vector_34" d="M591.112 568.136L640.378 549.758L499.414 504.112L546.134 634.361L567.227 589.578" fill="#D7E0FF"/>
<path id="Vector_35" d="M591.112 568.136L646.001 619.579L622.116 641.021L567.227 589.578" fill="#D7E0FF"/>
<path id="Vector_36" d="M341.827 525.028C328.098 516.51 315.666 507.099 314.35 501.415" stroke="#1B3C87" stroke-width="5.3" stroke-linecap="round" stroke-linejoin="round"/>
<path id="Vector_37" d="M409.833 494.465C403.5 514.925 387.708 535.574 379.68 543.82C377.055 543.926 366.299 539.017 354.24 532.321" stroke="#1B3C87" stroke-width="5.3" stroke-linecap="round" stroke-linejoin="round"/>
<path id="Vector_38" d="M330.916 480.358C348.656 460.187 376.565 436.421 400.56 453.858C401.516 454.55 402.429 455.29 403.294 456.077" stroke="#1B3C87" stroke-width="5.3" stroke-linecap="round" stroke-linejoin="round"/>
<g id="py1">
<path id="Vector_39" d="M516.477 184.548L454.707 241.539L602.403 272.889L516.477 184.548Z" stroke="#B6C6FC" stroke-width="3.95" stroke-linecap="round" stroke-linejoin="round"/>
</g>
<g id="py2">
<path id="Vector_40" d="M93.9001 630.961L84.2292 719.836L194.363 729.92L204.034 641.045L93.9001 630.961Z" stroke="#B6C6FC" stroke-width="3.95" stroke-linecap="round" stroke-linejoin="round"/>
</g>
<g id="py3">
<path id="Vector_41" d="M75.7571 769.879C105.317 769.879 129.279 747.899 129.279 720.785C129.279 693.671 105.317 671.69 75.7571 671.69C46.1976 671.69 22.2349 693.671 22.2349 720.785C22.2349 747.899 46.1976 769.879 75.7571 769.879Z" stroke="#B6C6FC" stroke-width="3.95" stroke-linecap="round" stroke-linejoin="round"/>
</g>
<path id="Vector_42" d="M374.766 281.128C371.98 271.889 360.205 269.925 354.266 289.409C351.687 282.584 346.302 272.883 340.686 272.883C337.178 272.883 332.303 276.207 328.543 282.264" stroke="#1B3C87" stroke-width="5.43" stroke-linecap="round" stroke-linejoin="round"/>
<path id="Vector_43" d="M371.161 397.305C368.433 405.687 359.438 433.452 359.16 452.711C354.801 455.077 325.48 456.088 317.574 450.712C319.754 442.206 323.436 418.067 322.482 409.685C326.576 408.94 371.161 397.305 371.161 397.305Z" fill="white"/>
<path id="Vector_44" d="M318.187 423.828C319.135 416.233 319.702 408.875 319.257 404.953C323.352 404.208 367.937 392.573 367.937 392.573C365.209 400.955 356.214 428.72 355.936 447.979C353.267 449.434 341.234 450.374 330.491 449.653" stroke="#1B3C87" stroke-width="5.3" stroke-linecap="round" stroke-linejoin="round"/>
<path id="Vector_45" d="M383.423 375.507C389.598 349.155 376.383 324.2 353.908 319.769C331.432 315.338 308.207 333.109 302.032 359.461C295.857 385.813 309.072 410.768 331.547 415.199C354.023 419.63 377.248 401.859 383.423 375.507Z" fill="white"/>
<path id="Vector_46" d="M341.124 411.182C336.679 411.985 332.103 411.951 327.673 411.081C316.259 408.833 307.231 401.286 301.924 390.97" stroke="#1B3C87" stroke-width="5.43" stroke-linecap="round" stroke-linejoin="round"/>
<path id="Vector_47" d="M297.32 376.65C296.222 369.561 296.515 362.35 298.184 355.356C304.368 328.987 327.582 311.218 350.062 315.637C372.541 320.055 385.748 345.028 379.57 371.38C378.285 376.918 376.167 382.265 373.276 387.267" stroke="#1B3C87" stroke-width="5.43" stroke-linecap="round" stroke-linejoin="round"/>
<path id="Vector_48" d="M384.445 379.519C385.27 376.969 393.653 362.436 392.828 339.297C392.293 324.071 379.177 294.171 379.209 290.202C379.318 277.597 364.906 271.866 358.116 294.124C355.536 287.298 350.152 277.597 344.535 277.597C338.919 277.597 329.781 286.103 327.428 300.713C326.647 296.04 322.075 290.658 319.464 290.658C316.852 290.658 310.584 291.018 310.849 310.899C308.759 308.503 304.187 307.066 301.821 307.066C296.972 307.066 290.168 328.425 309.494 342.23C310.578 340.349 313.615 336.375 313.796 336.375C317.349 337.256 351.706 345.117 372.56 347.749C372.038 350.618 364.874 380.631 372.825 389.716C375.426 388.847 377.802 387.492 379.802 385.736C381.802 383.981 383.383 381.864 384.445 379.519V379.519Z" fill="#FB5D64"/>
<path id="Vector_49" d="M323.326 362.614C322.443 365.867 317.071 371.249 314.35 372.22" stroke="#1B3C87" stroke-width="5.43" stroke-linecap="round" stroke-linejoin="round"/>
<path id="Vector_50" d="M348.58 361.416C349.433 359.291 349.01 357.193 347.636 356.73C346.262 356.266 344.458 357.613 343.606 359.737C342.754 361.862 343.176 363.96 344.55 364.424C345.924 364.887 347.728 363.541 348.58 361.416Z" fill="#1B3C87"/>
<path id="Vector_51" d="M338.422 387.279C337.384 389.379 331.142 394.241 327.815 394.62" stroke="#1B3C87" stroke-width="5.43" stroke-linecap="round" stroke-linejoin="round"/>
<path id="Vector_52" d="M368.724 343.035C367.298 349.505 366.252 356.041 365.59 362.614" stroke="#1B3C87" stroke-width="5.43" stroke-linecap="round" stroke-linejoin="round"/>
<path id="Vector_53" d="M323.578 296.005C322.798 291.332 318.226 285.949 315.614 285.949C313.002 285.949 306.735 286.31 306.999 306.19C304.91 303.795 300.338 302.357 297.971 302.357C293.122 302.357 286.319 323.716 305.645 337.522C306.728 335.641 309.765 331.666 309.946 331.666C312.867 332.394 336.642 337.842 356.594 341.219" stroke="#1B3C87" stroke-width="5.43" stroke-linecap="round" stroke-linejoin="round"/>
<path id="Vector_54" d="M383.374 368.15C387.546 357.382 389.447 345.984 388.978 334.565C388.675 326.059 384.464 312.969 380.782 302.387" stroke="#1B3C87" stroke-width="5.43" stroke-linecap="round" stroke-linejoin="round"/>
<path id="Vector_55" d="M375.146 394.626C381.023 394.626 385.786 390.256 385.786 384.866C385.786 379.476 381.023 375.106 375.146 375.106C369.27 375.106 364.506 379.476 364.506 384.866C364.506 390.256 369.27 394.626 375.146 394.626Z" fill="white"/>
<path id="Vector_56" d="M370.052 372.716C371.684 372.218 373.424 372.09 375.122 372.344C376.82 372.598 378.426 373.225 379.802 374.173C381.177 375.121 382.282 376.361 383.02 377.786C383.759 379.211 384.11 380.779 384.043 382.356C383.977 383.933 383.494 385.472 382.637 386.84C381.779 388.208 380.573 389.365 379.122 390.212C377.67 391.059 376.016 391.57 374.302 391.702C372.587 391.834 370.863 391.583 369.278 390.97" stroke="#1B3C87" stroke-width="5.43" stroke-linecap="round" stroke-linejoin="round"/>
</g>
</g>
<g id="python 1">
<path id="Vector_57" d="M565.053 368.777H539.637V393.914H478.191V424.637C478.191 427.722 480.692 430.223 483.777 430.223V450.053C483.777 461.622 493.156 471 504.725 471H524.275C535.844 471 545.223 461.622 545.223 450.053V438.602H520.205C517.949 438.602 516.008 436.868 515.901 434.615C515.787 432.208 517.705 430.223 520.086 430.223H565.053C576.622 430.223 586 420.844 586 409.275V389.725C586 378.156 576.622 368.777 565.053 368.777Z" fill="#FEEF55"/>
<path id="Vector_58" d="M565.053 368.777H539.637V393.914H514.5V471H524.275C535.844 471 545.223 461.622 545.223 450.053V438.602H520.205C517.949 438.602 516.008 436.868 515.901 434.615C515.787 432.208 517.705 430.223 520.086 430.223H565.053C576.622 430.223 586 420.844 586 409.275V389.725C586 378.156 576.622 368.777 565.053 368.777Z" fill="#FEDC00"/>
<path id="Vector_59" d="M494.949 399.5H534.051C540.22 399.5 545.223 394.498 545.223 388.328V348.947C545.223 337.397 535.826 328 524.275 328H504.725C493.174 328 483.777 337.397 483.777 348.947V360.398H508.914C511.228 360.398 513.104 362.274 513.104 364.588C513.104 366.902 511.228 368.777 508.914 368.777H463.947C452.397 368.777 443 378.174 443 389.725V409.275C443 420.826 452.397 430.223 463.947 430.223H483.777V410.672C483.777 404.502 488.78 399.5 494.949 399.5Z" fill="#78E0EA"/>
<path id="Vector_60" d="M524.275 328H514.5V399.5H534.051C540.22 399.5 545.223 394.498 545.223 388.328V348.947C545.223 337.397 535.826 328 524.275 328Z" fill="#3CCCDD"/>
<path id="Vector_61" d="M508.914 345.037C508.914 347.351 507.039 349.227 504.725 349.227C502.411 349.227 500.535 347.351 500.535 345.037C500.535 342.723 502.411 340.848 504.725 340.848C507.039 340.848 508.914 342.723 508.914 345.037Z" fill="#5A5A6E"/>
<path id="Vector_62" d="M528.465 453.963C528.465 456.277 526.589 458.152 524.275 458.152C521.961 458.152 520.086 456.277 520.086 453.963C520.086 451.649 521.961 449.773 524.275 449.773C526.589 449.773 528.465 451.649 528.465 453.963Z" fill="#46465A"/>
</g>
</g>
</svg>
