<svg width="829" height="685" viewBox="0 0 829 685" fill="none" xmlns="http://www.w3.org/2000/svg">
<rect width="829" height="685" fill="#E5E5E5"/>
<g id="drawkit-grape-pack-illustration-15 1" clip-path="url(#clip0)">
<g id="Layer 2">
<g id="vector">
<path id="Vector" d="M468.51 571.6C389.33 575.75 314.51 602.04 246.84 583.54C179.17 565.04 118.91 501.54 107.49 431.04C96.06 360.75 133.27 283.49 181.49 231.21C229.49 178.92 288.59 151.62 345.72 130.89C402.85 110.16 458 95.9 529.39 92.26C600.78 88.62 688.26 95.8 716.58 141.51C744.9 187.22 714.15 271.15 703.94 354.58C693.73 438.01 704.14 520.63 667.53 553C630.92 585.37 547.7 567.46 468.51 571.6Z" fill="#F0F0F0"/>
<path id="Vector_2" d="M417.47 411.4C422.73 412.17 436.9 414.47 436.9 414.47L459.65 424.61L489.9 369.61L451.9 392.02L433.08 381.37" fill="white"/>
<path id="Vector_3" d="M196.6 532.55H42.53L-6 280.58H148.07L196.6 532.55Z" fill="#EAF0FF"/>
<path id="Vector_4" d="M326.28 349C373.54 361.39 423.75 376 423.75 376C420.47 383.08 409.2 409.26 409.2 409.26L164.78 433.08C168.6 419.62 223.7 331.88 247.71 331.88C254.19 331.88 270 335.09 289.62 339.79" stroke="#1B3C87" stroke-width="2" stroke-linecap="round" stroke-linejoin="round"/>
<path id="Vector_5" d="M447.93 371.44L461.43 406.34" stroke="#1B3C87" stroke-width="2" stroke-linecap="round" stroke-linejoin="round"/>
<path id="Vector_6" d="M425.33 372.14L406.44 415.63" stroke="#1B3C87" stroke-width="2" stroke-linecap="round" stroke-linejoin="round"/>
<path id="Vector_7" d="M431.38 372.14L412.49 415.63" stroke="#1B3C87" stroke-width="2" stroke-linecap="round" stroke-linejoin="round"/>
<path id="Vector_8" d="M413.47 407.4C418.73 408.17 432.9 410.47 432.9 410.47L455.65 420.61L485.9 365.61L447.9 388.02L429.08 377.37" stroke="#1B3C87" stroke-width="2" stroke-linecap="round" stroke-linejoin="round"/>
<path id="Vector_9" d="M769.87 417.28H273.14V428.26H769.87V417.28Z" fill="#D8DFFF"/>
<path id="Vector_10" d="M299.01 679.69L360.86 428.26" stroke="#D8DFFF" stroke-width="2" stroke-linecap="round" stroke-linejoin="round"/>
<path id="Vector_11" d="M359.22 683.69L421.93 428.77" stroke="#D8DFFF" stroke-width="2" stroke-linecap="round" stroke-linejoin="round"/>
<path id="Vector_12" d="M457.27 570.14L422.5 428.77" stroke="#D8DFFF" stroke-width="2" stroke-linecap="round" stroke-linejoin="round"/>
<path id="Vector_13" d="M485.21 683.69L467.84 613.1" stroke="#D8DFFF" stroke-width="2" stroke-linecap="round" stroke-linejoin="round"/>
<path id="Vector_14" d="M425 683.69L362.29 428.77" stroke="#D8DFFF" stroke-width="2" stroke-linecap="round" stroke-linejoin="round"/>
<path id="Vector_15" d="M574.69 679.69L636.54 428.26" stroke="#D8DFFF" stroke-width="2" stroke-linecap="round" stroke-linejoin="round"/>
<path id="Vector_16" d="M678.54 506.29L697.62 428.77" stroke="#D8DFFF" stroke-width="2" stroke-linecap="round" stroke-linejoin="round"/>
<path id="Vector_17" d="M634.9 683.69L658.65 587.16" stroke="#D8DFFF" stroke-width="2" stroke-linecap="round" stroke-linejoin="round"/>
<path id="Vector_18" d="M760.89 683.69L698.18 428.77" stroke="#D8DFFF" stroke-width="2" stroke-linecap="round" stroke-linejoin="round"/>
<path id="Vector_19" d="M700.68 683.69L637.97 428.77" stroke="#D8DFFF" stroke-width="2" stroke-linecap="round" stroke-linejoin="round"/>
<path id="Vector_20" d="M42.53 532.55H225.75" stroke="#1B3C87" stroke-width="2" stroke-linecap="round" stroke-linejoin="round"/>
<path id="Vector_21" d="M134.14 656.23V672.93" stroke="#1B3C87" stroke-width="2" stroke-linecap="round" stroke-linejoin="round"/>
<path id="Vector_22" d="M134.14 610.82V622.62" stroke="#1B3C87" stroke-width="2" stroke-linecap="round" stroke-linejoin="round"/>
<path id="Vector_23" d="M134.14 532.55V598.95" stroke="#1B3C87" stroke-width="2" stroke-linecap="round" stroke-linejoin="round"/>
<path id="Vector_24" d="M104.35 672.93H163.93" stroke="#1B3C87" stroke-width="2" stroke-linecap="round" stroke-linejoin="round"/>
<path id="Vector_25" d="M713.91 49.73H457.89V305.75H713.91V49.73Z" fill="#D8DFFF"/>
<g id="line2">
<path id="Vector_26" d="M619.42 96.04H497.8C487.572 96.04 479.28 104.332 479.28 114.56V119.06C479.28 129.288 487.572 137.58 497.8 137.58H619.42C629.648 137.58 637.94 129.288 637.94 119.06V114.56C637.94 104.332 629.648 96.04 619.42 96.04Z" fill="white"/>
<path id="Vector_27" d="M671.75 137.57C683.221 137.57 692.52 128.271 692.52 116.8C692.52 105.329 683.221 96.03 671.75 96.03C660.279 96.03 650.98 105.329 650.98 116.8C650.98 128.271 660.279 137.57 671.75 137.57Z" fill="white"/>
<path id="Vector_28" d="M479.28 160.91H692.52" stroke="white" stroke-width="2" stroke-linecap="round" stroke-linejoin="round"/>
<path id="Vector_29" d="M479.28 191.59H692.52" stroke="white" stroke-width="2" stroke-linecap="round" stroke-linejoin="round"/>
<path id="Vector_30" d="M479.28 222.27H587.32" stroke="white" stroke-width="2" stroke-linecap="round" stroke-linejoin="round"/>
</g>
<g id="webbox">
<path id="web" d="M405.13 218.34H366.89C360.263 218.34 354.89 223.713 354.89 230.34V268.58C354.89 275.207 360.263 280.58 366.89 280.58H405.13C411.757 280.58 417.13 275.207 417.13 268.58V230.34C417.13 223.713 411.757 218.34 405.13 218.34Z" fill="#D8DFFF"/>
</g>
<g id="webcircle">
<path id="Vector_31" d="M413.76 233.76C422.42 233.76 429.44 226.74 429.44 218.08C429.44 209.42 422.42 202.4 413.76 202.4C405.1 202.4 398.08 209.42 398.08 218.08C398.08 226.74 405.1 233.76 413.76 233.76Z" fill="#FA5D63"/>
</g>
<path id="Vector_32" d="M580.52 0H342.09V83.11H580.52V0Z" fill="#EAF0FF"/>
<g id="line1">
<path id="Vector_33" d="M383.04 24.55H539.57" stroke="#B2C3FB" stroke-width="2" stroke-linecap="round" stroke-linejoin="round"/>
<path id="Vector_34" d="M383.04 58.56H456.06" stroke="#B2C3FB" stroke-width="2" stroke-linecap="round" stroke-linejoin="round"/>
</g>
<g id="webrot">
<path id="Vector_35" d="M249.74 114.58L227.74 165.24L282.61 158.97L249.74 114.58Z" stroke="#B6C6FC" stroke-width="2" stroke-linecap="round" stroke-linejoin="round"/>
<path id="Vector_36" d="M758.162 78.1254L752.632 100.986L797.711 111.892L803.242 89.0313L758.162 78.1254Z" stroke="#B6C6FC" stroke-width="2" stroke-linecap="round" stroke-linejoin="round"/>
</g>
<path id="Vector_37" d="M84.57 474.83C85.18 481.64 96.57 536.55 132.68 536.55C186.36 536.55 273.77 468.79 302.91 446.03C321.53 442.24 461.91 402.03 461.91 402.03C459.32 394.27 453.8 379.96 453.8 379.96C453.8 379.96 325.11 388.11 302.3 391.91C279.49 395.71 172.64 428.91 167.46 430.4C162.28 431.89 84.57 474.83 84.57 474.83Z" fill="#3B3744"/>
<path id="Vector_38" d="M168.78 437.08C172.6 423.62 227.7 335.88 251.71 335.88C275.72 335.88 427.71 379.99 427.71 379.99C424.43 387.07 413.16 413.25 413.16 413.25L168.78 437.08Z" fill="#3B3744"/>
<path id="Vector_39" d="M315.47 385.93C307.81 386.67 301.79 387.36 298.28 387.93C275.48 391.73 168.62 424.93 163.44 426.42C158.26 427.91 80.57 470.82 80.57 470.82C81.18 477.63 92.57 532.54 128.68 532.54C154.38 532.54 187.81 517.01 218.88 498.32" stroke="#1B3C87" stroke-width="2" stroke-linecap="round" stroke-linejoin="round"/>
<path id="Vector_40" d="M254.68 475C273.53 461.83 289.35 449.52 298.91 442.06C317.53 438.27 457.91 398.06 457.91 398.06C455.32 390.3 449.8 375.99 449.8 375.99C449.8 375.99 405.8 378.78 364.72 381.85" stroke="#1B3C87" stroke-width="2" stroke-linecap="round" stroke-linejoin="round"/>
<path id="Vector_41" d="M153.14 326C157.43 331.4 164.41 343.94 166 347.75C174.25 344.41 250 316.75 256.47 315.37C262.94 313.99 289.8 308.54 292.66 328.37C287.74 332.5 276.47 328.84 268.06 330.67C259.65 332.5 169 385.07 162.64 386.48C156.28 387.89 119.97 376.48 119.97 376.48C119.97 376.48 137 328.68 153.14 326Z" fill="white"/>
<path id="Vector_42" d="M111.68 272.45C130.77 272.45 155.49 306.84 160.07 320.31C157.45 325.8 147.38 335.09 144.37 335.87C141.36 336.65 89.71 272.45 111.68 272.45Z" fill="#46DBC9"/>
<path id="Vector_43" d="M153.56 310.58C154.528 312.43 155.366 314.345 156.07 316.31C153.45 321.8 143.38 331.09 140.37 331.87C137.36 332.65 85.71 268.45 107.68 268.45C120.05 268.45 134.79 282.89 144.87 296.72" stroke="#1B3C87" stroke-width="2" stroke-linecap="round" stroke-linejoin="round"/>
<path id="Vector_44" d="M249.44 333.57C221.32 348.3 163.64 381.37 158.64 382.48C152.32 383.88 115.97 372.48 115.97 372.48C115.97 372.48 132.97 324.7 149.14 322C153.43 327.4 160.41 339.94 162 343.75C164 342.93 170.08 340.66 178.17 337.68" stroke="#1B3C87" stroke-width="2" stroke-linecap="round" stroke-linejoin="round"/>
<path id="Vector_45" d="M206.88 327.19C228 319.56 249.17 312.07 252.47 311.35C258.98 309.92 285.8 304.52 288.66 324.35C283.74 328.48 272.47 324.82 264.06 326.65" stroke="#1B3C87" stroke-width="2" stroke-linecap="round" stroke-linejoin="round"/>
<path id="Vector_46" d="M114 278C148 302.55 159.7 374.6 172 429.19C161.67 440.78 98.29 481.19 84.44 478.08C53.61 403.08 15.93 269.39 87.53 269.39C97.05 269.336 106.333 272.356 114 278" fill="#46DBC9"/>
<path id="Vector_47" d="M77.09 465.78C47 389.67 14.49 265.39 83.52 265.39C98.2 265.39 109.98 271.94 119.65 282.82" stroke="#1B3C87" stroke-width="2" stroke-linecap="round" stroke-linejoin="round"/>
<path id="Vector_48" d="M135.68 308.15C151.26 341.15 159.48 387.36 167.99 425.15C163.07 430.66 146.14 442.7 128.25 453.47" stroke="#1B3C87" stroke-width="2" stroke-linecap="round" stroke-linejoin="round"/>
<path id="Vector_49" d="M38.19 368.29C37.7 375.52 30.64 479.08 33.28 515.44C34.52 532.55 39.94 544.77 40.05 550.62C40.47 571.42 56.91 581.98 63.25 581.98C69.59 581.98 70.32 579.81 70.32 577.27C70.32 574.73 57.09 547.18 57.09 537C57.09 526.82 74 379.14 75.94 370.44C77.88 361.74 38.19 368.29 38.19 368.29Z" fill="white"/>
<path id="Vector_50" d="M53.21 530.55C54.72 508.62 70.05 374.71 71.94 366.44C73.94 357.74 34.19 364.29 34.19 364.29C33.93 368.06 31.89 398.02 30.37 430.99" stroke="#1B3C87" stroke-width="2" stroke-linecap="round" stroke-linejoin="round"/>
<path id="Vector_51" d="M28.79 478.24C28.58 491.49 28.68 503.19 29.28 511.44C30.52 528.55 35.94 540.77 36.05 546.62C36.47 567.42 52.91 577.98 59.25 577.98C65.59 577.98 66.32 575.81 66.32 573.27C66.32 572.09 63.44 565.46 60.37 557.7" stroke="#1B3C87" stroke-width="2" stroke-linecap="round" stroke-linejoin="round"/>
<path id="Vector_52" d="M66.54 288C89.43 289.19 86.43 370.44 79.03 373.43C71.63 376.42 36.2 372.73 32.5 367.62C28.8 362.51 35.08 286.4 66.54 288Z" fill="#46DBC9"/>
<path id="Vector_53" d="M59.93 244.9C62.51 252.7 65.66 271.53 65.59 277.26C69.67 279.26 81.48 279.98 86.14 276.47C84.28 271.39 82.42 259.29 82.56 251.42C82.7 243.55 59.93 244.9 59.93 244.9Z" fill="white"/>
<path id="Vector_54" d="M81.11 269C79.4566 261.931 78.6013 254.699 78.56 247.44C78.7 239.56 55.93 240.92 55.93 240.92C58.51 248.72 61.66 267.55 61.59 273.28C64.27 274.6 70.28 275.36 75.41 274.73" stroke="#1B3C87" stroke-width="2" stroke-linecap="round" stroke-linejoin="round"/>
<path id="Vector_55" d="M78.56 259.07C93.4275 259.07 105.48 247.017 105.48 232.15C105.48 217.282 93.4275 205.23 78.56 205.23C63.6925 205.23 51.64 217.282 51.64 232.15C51.64 247.017 63.6925 259.07 78.56 259.07Z" fill="white"/>
<path id="Vector_56" d="M97.49 242.27C94.3354 247.361 89.578 251.258 83.9661 253.349C78.3542 255.44 72.2064 255.605 66.49 253.82" stroke="#1B3C87" stroke-width="2" stroke-linecap="round" stroke-linejoin="round"/>
<path id="Vector_57" d="M54.56 246.17C51.6384 242.924 49.5506 239.015 48.4766 234.782C47.4026 230.548 47.3748 226.117 48.3954 221.871C49.4161 217.624 51.4547 213.69 54.3352 210.407C57.2158 207.124 60.8518 204.591 64.9296 203.027C69.0074 201.463 73.4045 200.915 77.7416 201.43C82.0786 201.944 86.2253 203.506 89.824 205.981C93.4226 208.456 96.3651 211.769 98.3975 215.635C100.43 219.5 101.491 223.803 101.49 228.17C101.486 229.509 101.386 230.846 101.19 232.17" stroke="#1B3C87" stroke-width="2" stroke-linecap="round" stroke-linejoin="round"/>
<path id="Vector_58" d="M103.28 211.4C94.02 224.4 73.42 225.52 69.28 225.52C65.14 225.52 64.16 237.1 58.83 237.1C53.5 237.1 39.83 233.62 39.83 217.65C39.83 205.84 49.09 199.71 62.17 195.65C72.45 192.46 94.35 185.65 101.06 185.65C112.29 185.65 118.06 196.76 118.06 207.65C118.06 217.02 115.3 221.46 104.58 225.32" fill="#ECC953"/>
<path id="Vector_59" d="M64.44 189.73C75.6 186.33 91.53 181.73 97.08 181.73C108.31 181.73 114.08 192.84 114.08 203.73C114.08 213.1 111.32 217.54 100.6 221.4" stroke="#1B3C87" stroke-width="2" stroke-linecap="round" stroke-linejoin="round"/>
<path id="Vector_60" d="M75.32 220.49C71.9982 221.111 68.6291 221.446 65.25 221.49C61.08 221.49 60.16 233.07 54.83 233.07C49.5 233.07 35.83 229.59 35.83 213.62C35.8162 211.794 36.062 209.976 36.56 208.22" stroke="#1B3C87" stroke-width="2" stroke-linecap="round" stroke-linejoin="round"/>
<path id="Vector_61" d="M99.28 207.4C96.0035 211.742 91.606 215.109 86.56 217.14" stroke="#1B3C87" stroke-width="2" stroke-linecap="round" stroke-linejoin="round"/>
<path id="Vector_62" d="M59.55 241.12C63.3552 241.12 66.44 238.035 66.44 234.23C66.44 230.425 63.3552 227.34 59.55 227.34C55.7448 227.34 52.66 230.425 52.66 234.23C52.66 238.035 55.7448 241.12 59.55 241.12Z" fill="white"/>
<path id="Vector_63" d="M57.55 239.12C56.4183 239.119 55.3042 238.839 54.3063 238.305C53.3084 237.772 52.4573 237 51.8283 236.059C51.1993 235.119 50.8118 234.037 50.6999 232.911C50.588 231.785 50.7553 230.648 51.1869 229.602C51.6185 228.556 52.3012 227.632 53.1746 226.913C54.048 226.193 55.0853 225.699 56.1947 225.476C57.3041 225.252 58.4515 225.305 59.5355 225.63C60.6195 225.956 61.6068 226.543 62.41 227.34" stroke="#1B3C87" stroke-width="2" stroke-linecap="round" stroke-linejoin="round"/>
<path id="Vector_64" d="M70.2 370.35C57.98 371.35 31.66 368 28.5 363.64C26.73 361.19 27.24 342.45 31.72 323.77" stroke="#1B3C87" stroke-width="2" stroke-linecap="round" stroke-linejoin="round"/>
<path id="Vector_65" d="M42.1 297.05C47.24 288.93 53.95 283.58 62.54 284.05C81.14 285.05 82.65 338.83 78.54 360.59" stroke="#1B3C87" stroke-width="2" stroke-linecap="round" stroke-linejoin="round"/>
<g id="webleg">
<path id="Vector_66" d="M467.68 399.55L483.53 393.67L501.99 391.89L481.9 333.38L474.77 370.65L459.1 377.37" fill="white"/>
<path id="Vector_67" d="M472.11 360.66L470.77 367.65L455.1 374.37" stroke="#1B3C87" stroke-width="2" stroke-linecap="round" stroke-linejoin="round"/>
<path id="Vector_68" d="M490.9 368.25L477.9 330.38L473.74 352.11" stroke="#1B3C87" stroke-width="2" stroke-linecap="round" stroke-linejoin="round"/>
<path id="Vector_69" d="M463.68 396.55L479.53 390.67L497.99 388.89" stroke="#1B3C87" stroke-width="2" stroke-linecap="round" stroke-linejoin="round"/>
<path id="Vector_70" d="M452.69 368.14L466.19 403.04" stroke="#1B3C87" stroke-width="2" stroke-linecap="round" stroke-linejoin="round"/>
</g>
<path id="Vector_71" d="M87 227.34C87 229.97 88.59 234.72 91 236.49" stroke="#1B3C87" stroke-width="2" stroke-linecap="round" stroke-linejoin="round"/>
<path id="Vector_72" d="M94.68 228.15C95.6134 228.15 96.37 226.704 96.37 224.92C96.37 223.136 95.6134 221.69 94.68 221.69C93.7466 221.69 92.99 223.136 92.99 224.92C92.99 226.704 93.7466 228.15 94.68 228.15Z" fill="#1B3C87"/>
<path id="Vector_73" d="M77.27 240.27C78.53 241.79 82.01 243.89 84.43 243.89" stroke="#1B3C87" stroke-width="2" stroke-linecap="round" stroke-linejoin="round"/>
<path id="Vector_74" d="M822.05 207.44H683.8V389.25H822.05V207.44Z" fill="#EAF0FF"/>
<path id="Vector_75" d="M822.05 207.44H683.8V232.62H822.05V207.44Z" fill="#D8DFFF"/>
<path id="Vector_76" d="M699.14 226.08C702.581 226.08 705.37 223.291 705.37 219.85C705.37 216.409 702.581 213.62 699.14 213.62C695.699 213.62 692.91 216.409 692.91 219.85C692.91 223.291 695.699 226.08 699.14 226.08Z" fill="#B2C3FB"/>
<path id="Vector_77" d="M718.11 226.08C721.551 226.08 724.34 223.291 724.34 219.85C724.34 216.409 721.551 213.62 718.11 213.62C714.669 213.62 711.88 216.409 711.88 219.85C711.88 223.291 714.669 226.08 718.11 226.08Z" fill="#B2C3FB"/>
<path id="Vector_78" d="M737.09 226.08C740.531 226.08 743.32 223.291 743.32 219.85C743.32 216.409 740.531 213.62 737.09 213.62C733.649 213.62 730.86 216.409 730.86 219.85C730.86 223.291 733.649 226.08 737.09 226.08Z" fill="#B2C3FB"/>
<g id="line3">
<path id="Vector_79" d="M738.76 253.17H700.56V306.17H738.76V253.17Z" fill="#D8DFFF"/>
<path id="Vector_80" d="M752.01 253.17H803.81" stroke="#B2C3FB" stroke-width="2" stroke-linecap="round" stroke-linejoin="round"/>
<path id="Vector_81" d="M700.56 335.25H803.81" stroke="#B2C3FB" stroke-width="2" stroke-linecap="round" stroke-linejoin="round"/>
<path id="Vector_82" d="M700.56 362.61H803.81" stroke="#B2C3FB" stroke-width="2" stroke-linecap="round" stroke-linejoin="round"/>
<path id="Vector_83" d="M752.01 280.53H803.81" stroke="#B2C3FB" stroke-width="2" stroke-linecap="round" stroke-linejoin="round"/>
<path id="Vector_84" d="M752.01 307.89H803.81" stroke="#B2C3FB" stroke-width="2" stroke-linecap="round" stroke-linejoin="round"/>
</g>
</g>
</g>
</g>
<defs>
<clipPath id="clip0">
<rect width="828.05" height="684.69" fill="white"/>
</clipPath>
</defs>
</svg>
